<?xml version="1.0" encoding="UTF-8" standalone="no"?>
<!DOCTYPE svg PUBLIC "-//W3C//DTD SVG 20010904//EN"
              "http://www.w3.org/TR/2001/REC-SVG-20010904/DTD/svg10.dtd">

<svg xmlns="http://www.w3.org/2000/svg"
	width="11.1111in" height="11.1111in"
	 viewBox="0 0 1000 1000">
	<circle fill="#FFF" cx="500" cy="500" r="500"></circle>
	<circle fill="#7F0000" cx="315" cy="585" r="110"></circle>
	<path id="Outer Whisp"
		fill="#000"
		transform="scale(0.93) translate(0,50)"
		d="M 981.25,199.25
		  C 977.25,212.25 971.75,218.25 966.50,224.50
			922.75,285.25 848.00,354.50 817.50,382.75
			754.25,443.50 551.25,625.00 445.50,692.50
			375.75,742.50 357.00,747.75 298.00,752.25
			214.25,754.00 161.25,696.50 148.00,676.75
			119.00,639.50 116.50,596.50 116.25,576.00
			116.75,497.25 157.50,458.00 171.00,443.00
			191.00,420.00 222.75,403.25 229.50,398.75
			197.50,412.00 170.25,430.50 165.75,433.75
			137.75,455.25 108.75,491.75 100.25,508.25
			75.25,559.50 68.50,585.25 68.50,623.75
			69.00,685.75 94.50,742.25 131.75,777.25
			175.25,816.75 217.50,839.75 292.00,840.50
			380.00,837.75 435.75,799.25 485.00,757.00
			542.50,714.75 601.00,655.75 615.25,642.75
			686.75,581.50 891.00,361.75 952.75,265.75
			964.75,246.75 987.25,216.50 981.25,199.25 Z" />
	<path id="Inner Whisp"
		fill="#0008FF"
		transform="scale(0.93) translate(0,50)"
		d="M 741.00,264.00
		  C 741.00,264.00 788.75,249.00 815.50,251.25
			808.00,244.25 787.75,245.25 787.75,245.00
			715.75,251.75 701.00,256.00 634.75,271.00
			468.00,313.00 314.00,359.75 216.00,417.00
			118.00,481.25 129.25,571.50 131.00,586.50
			136.00,648.25 185.50,699.75 222.00,715.50
			333.25,770.75 411.50,706.75 430.50,691.50
			300.75,767.25 226.25,663.00 221.25,656.25
			173.75,592.25 206.00,529.50 214.75,511.50
			237.25,463.75 310.00,433.50 334.50,421.50
			391.00,391.25 574.00,319.50 574.00,319.50
			608.25,304.75 704.50,273.00 741.00,264.00 Z" />
</svg>
