<svg viewBox="0 0 1000 1000" style="background-color:#111" xmlns:dc="http://purl.org/dc/elements/1.1/"
xmlns:cc="http://web.resource.org/cc/"
xmlns:rdf="http://www.w3.org/1999/02/22-rdf-syntax-ns#"
xmlns:svg="http://www.w3.org/2000/svg"
xmlns="http://www.w3.org/2000/svg">
<metadata>
  <rdf:RDF>
	<cc:Work>
	  <dc:format>image/svg+xml</dc:format>
	</cc:Work>
  </rdf:RDF>
</metadata>
	<style>
		#main *{
			transform: translate(-50%,-50%);
			animation: glow 5s ease infinite alternate;
			stroke-width: 5;
			fill: none;
		}

		@keyframes glow {
			0%{
				stroke: #0000FF;
			}
			50%{
				stroke: #000000;
			}
			100%{
				stroke: #FF0000;
			}
		}
	</style>
	<defs>
		<linearGradient id="red">
			<stop offset="0" stop-color="transparent"/>
			<stop offset="1" stop-color="red"/>
		</linearGradient>
		<g id="thing">
			<rect width="100" height="100" fill="blue"/>
		</g>
	</defs>
	<g id="main" transform="translate(500,500)">
		<rect width="0" height="0"/>
<rect width="66" height="90"/>
<rect width="133" height="181"/>
<rect width="200" height="272"/>
<rect width="266" height="363"/>
<rect width="333" height="454"/>
<rect width="400" height="545"/>
<rect width="466" height="636"/>
<rect width="533" height="727"/>
<rect width="600" height="818"/>
<rect width="666" height="909"/>
<rect width="733" height="999"/>
<rect width="800" height="1090"/>
<rect width="866" height="1181"/>
<rect width="933" height="1272"/>
<rect width="1000" height="1363"/>
<rect width="1066" height="1454"/>
<rect width="1133" height="1545"/>
<rect width="1200" height="1636"/>
<rect width="1266" height="1727"/>
<rect width="1333" height="1818"/>
<rect width="1400" height="1909"/>
<rect width="1466" height="1999"/>
<rect width="1533" height="2090"/>
<rect width="1600" height="2181"/>
<rect width="1666" height="2272"/>
<rect width="1733" height="2363"/>
<rect width="1800" height="2454"/>
<rect width="1866" height="2545"/>
<rect width="1933" height="2636"/>

	</g>
</svg>
