<svg viewBox="0 0 1000 1000" xmlns:dc="http://purl.org/dc/elements/1.1/"
xmlns:cc="http://web.resource.org/cc/"
xmlns:rdf="http://www.w3.org/1999/02/22-rdf-syntax-ns#"
xmlns:svg="http://www.w3.org/2000/svg"
xmlns="http://www.w3.org/2000/svg">
<metadata>
  <rdf:RDF>
	<cc:Work>
	  <dc:format>image/svg+xml</dc:format>
	</cc:Work>
  </rdf:RDF>
</metadata>
<style>
		path{
			fill: none;
			stroke: url(#Gradient);
			stroke-width: 5px;
		}
	</style>
	<defs>
		<linearGradient id="Gradient" fy="0.9">
			<stop offset="0" stop-color="red"/>
			<stop offset="0.5" stop-color="black" stop-opacity="0"/>
			<stop offset="1" stop-color="blue"/>
			<animate attributeName="fy" dur="700ms" from="0" to="0.9" repeatCount="indefinite" />
		</linearGradient>
		<g id="thing">
			<path d="M0,0 a1,1 0 0,0 0,0"/>
			<path d="M-50,50 a1,1 0 0,0 100,0"/>
			<path d="M-100,100 a1,1 0 0,0 200,0"/>
			<path d="M-150,150 a1,1 0 0,0 300,0"/>
			<path d="M-200,200 a1,1 0 0,0 400,0"/>
			<path d="M-250,250 a1,1 0 0,0 500,0"/>
			<path d="M-300,300 a1,1 0 0,0 600,0"/>
			<path d="M-350,350 a1,1 0 0,0 700,0"/>
			<path d="M-400,400 a1,1 0 0,0 800,0"/>
			<path d="M-450,450 a1,1 0 0,0 900,0"/>
			<path d="M-500,500 a1,1 0 0,0 1000,0"/>
			<path d="M-550,550 a1,1 0 0,0 1100,0"/>
			<path d="M-600,600 a1,1 0 0,0 1200,0"/>
			<path d="M-650,650 a1,1 0 0,0 1300,0"/>
			<path d="M-700,700 a1,1 0 0,0 1400,0"/>
			<path d="M-750,750 a1,1 0 0,0 1500,0"/>
			<path d="M-800,800 a1,1 0 0,0 1600,0"/>
			<path d="M-850,850 a1,1 0 0,0 1700,0"/>
			<path d="M-900,900 a1,1 0 0,0 1800,0"/>
			<path d="M-950,950 a1,1 0 0,0 1900,0"/>
			<path d="M-1000,1000 a1,1 0 0,0 2000,0"/>
		</g>
	</defs>
	<use href="#thing"/>
	<use href="#thing" transform="rotate(-90)"/>
</svg>
